<?xml version="1.0" encoding="UTF-8"?>
<!DOCTYPE svg PUBLIC "-//W3C//DTD SVG 1.1//EN" "http://www.w3.org/Graphics/SVG/1.1/DTD/svg11.dtd">
<svg xmlns="http://www.w3.org/2000/svg" version="1.1" width="800px" height="800px" style="shape-rendering:geometricPrecision; text-rendering:geometricPrecision; image-rendering:optimizeQuality; fill-rule:evenodd; clip-rule:evenodd" xmlns:xlink="http://www.w3.org/1999/xlink">
<g><path style="opacity:1" fill="#fefefe" d="M -0.5,-0.5 C 266.167,-0.5 532.833,-0.5 799.5,-0.5C 799.5,266.167 799.5,532.833 799.5,799.5C 532.833,799.5 266.167,799.5 -0.5,799.5C -0.5,532.833 -0.5,266.167 -0.5,-0.5 Z"/></g>
<g><path style="opacity:1" fill="#242223" d="M 434.5,407.5 C 431.85,418.51 435.85,422.843 446.5,420.5C 455.6,431.572 461.766,444.239 465,458.5C 475.24,517.847 454.073,561.68 401.5,590C 394.294,594.911 390.627,601.744 390.5,610.5C 393.703,636.746 394.87,663.079 394,689.5C 390.022,723.096 373.189,747.596 343.5,763C 307.627,773.581 279.794,763.081 260,731.5C 251.062,716.407 250.395,701.074 258,685.5C 271.695,669.951 285.695,669.618 300,684.5C 309.248,700.336 306.414,713.502 291.5,724C 285.203,726.873 278.869,729.54 272.5,732C 290.718,756.403 314.385,763.737 343.5,754C 357.494,748.339 367.994,738.839 375,725.5C 385.084,701.832 388.417,677.165 385,651.5C 383.499,633.827 381.999,616.16 380.5,598.5C 328.206,609.685 281.206,598.852 239.5,566C 204.596,534.642 189.762,495.476 195,448.5C 197.402,393.533 219.235,348.033 260.5,312C 281.096,293.379 302.429,275.712 324.5,259C 332.223,253.381 336.723,245.881 338,236.5C 337.79,206.169 337.79,175.836 338,145.5C 338.782,117.163 346.782,91.1631 362,67.5C 373.17,52.3326 387.336,40.8326 404.5,33C 406.971,32.2937 409.305,32.627 411.5,34C 430.503,53.1815 441.003,76.3481 443,103.5C 446.293,135.689 443.627,167.356 435,198.5C 422.199,233.962 400.366,262.462 369.5,284C 356.838,295.045 352.672,308.878 357,325.5C 359.177,344.892 361.677,364.225 364.5,383.5C 385.086,383.306 404.419,388.139 422.5,398C 426.975,400.65 430.975,403.817 434.5,407.5 Z"/></g>
<g><path style="opacity:1" fill="#fdfdfd" d="M 421.5,64.5 C 425.634,69.7725 428.467,75.7725 430,82.5C 436.122,140.466 416.956,188.299 372.5,226C 365.334,230.751 358,235.251 350.5,239.5C 347.281,231.96 345.281,223.96 344.5,215.5C 340.968,169.267 353.802,128.267 383,92.5C 394.077,80.5661 406.91,71.2327 421.5,64.5 Z"/></g>
<g><path style="opacity:1" fill="#f8f7f7" d="M 402.5,47.5 C 403.873,47.3433 405.207,47.51 406.5,48C 409.407,51.1508 412.074,54.4841 414.5,58C 387,72.1667 366.167,93 352,120.5C 357.469,88.2048 374.303,63.8715 402.5,47.5 Z"/></g>
<g><path style="opacity:1" fill="#6e6e6e" d="M 291.5,142.5 C 293.794,140.569 296.461,139.736 299.5,140C 296.978,141.341 294.311,142.174 291.5,142.5 Z"/></g>
<g><path style="opacity:1" fill="#fafafa" d="M 429.5,166.5 C 430.169,173.148 429.336,179.814 427,186.5C 413.995,221.509 393.162,251.009 364.5,275C 358.5,279.667 352.5,284.333 346.5,289C 328.167,300.667 309.833,312.333 291.5,324C 259.88,347.454 233.38,375.621 212,408.5C 215.015,395.454 220.015,383.121 227,371.5C 244.854,343.303 266.688,318.47 292.5,297C 311.635,281.933 331.302,267.6 351.5,254C 378.707,233.793 402.207,209.96 422,182.5C 424.785,177.265 427.285,171.932 429.5,166.5 Z"/></g>
<g><path style="opacity:1" fill="#f9f8f8" d="M 312.5,399.5 C 307.54,402.792 303.207,406.792 299.5,411.5C 294.187,416.793 289.854,422.793 286.5,429.5C 285.207,428.355 284.041,428.689 283,430.5C 281.519,429.529 280.685,428.196 280.5,426.5C 282.273,423.796 283.94,420.963 285.5,418C 270.97,409.494 255.47,402.994 239,398.5C 236.94,400.282 235.107,402.282 233.5,404.5C 231.898,402.926 229.898,402.259 227.5,402.5C 229.495,398.516 231.995,394.849 235,391.5C 245.563,380.268 256.73,369.768 268.5,360C 294.667,339.833 320.833,319.667 347,299.5C 350.574,327.756 353.407,356.089 355.5,384.5C 340.103,386.521 325.77,391.521 312.5,399.5 Z"/></g>
<g><path style="opacity:1" fill="#5c5a5b" d="M 211.5,339.5 C 216.316,338.35 221.316,338.184 226.5,339C 225.956,339.717 225.289,340.217 224.5,340.5C 220.366,339.515 216.032,339.182 211.5,339.5 Z"/></g>
<g><path style="opacity:1" fill="#242223" d="M 659.5,534.5 C 660.725,533.063 661.725,531.396 662.5,529.5C 662.154,528.304 661.654,528.304 661,529.5C 660.209,530.745 659.709,532.078 659.5,533.5C 627.117,578.181 583.117,598.347 527.5,594C 497.689,590.396 469.689,581.396 443.5,567C 446.382,563.407 449.382,559.907 452.5,556.5C 484.63,573.949 518.963,582.116 555.5,581C 603.7,575.328 639.2,551.162 662,508.5C 672.067,488.889 678.733,468.222 682,446.5C 663.311,506.922 622.811,542.422 560.5,553C 528.53,556.171 497.53,552.171 467.5,541C 465.777,540.477 464.444,539.477 463.5,538C 464.877,534.033 466.544,530.2 468.5,526.5C 505.933,541.734 544.266,544.567 583.5,535C 626.393,520.442 655.893,491.942 672,449.5C 682.824,419.591 685.99,388.924 681.5,357.5C 681.313,355.436 680.813,353.436 680,351.5C 679.5,358.158 679.334,364.825 679.5,371.5C 676.758,427.996 651.425,470.829 603.5,500C 571.191,515.759 537.191,521.093 501.5,516C 491.81,514.526 482.31,512.359 473,509.5C 472.674,504.771 473.174,500.104 474.5,495.5C 513.935,508.419 552.935,507.252 591.5,492C 637.927,467.87 664.427,429.703 671,377.5C 672.613,364.149 672.779,350.816 671.5,337.5C 669.21,316.316 668.21,316.316 668.5,337.5C 659.249,406.825 621.249,451.992 554.5,473C 527.668,479.31 500.668,480.144 473.5,475.5C 473.647,470.786 473.314,466.119 472.5,461.5C 523.51,472.065 569.51,461.565 610.5,430C 652.703,391.399 668.537,343.899 658,287.5C 651.358,273.546 643.691,260.213 635,247.5C 639.298,258.073 642.632,269.073 645,280.5C 653.042,344.926 628.542,392.093 571.5,422C 535.73,436.514 499.064,439.348 461.5,430.5C 459.164,425.825 456.331,421.492 453,417.5C 452.409,416.517 452.743,415.85 454,415.5C 474.509,420.751 495.342,423.084 516.5,422.5C 521.024,428.609 526.69,429.942 533.5,426.5C 534.85,424.217 534.517,422.217 532.5,420.5C 588.039,410.338 622.872,378.005 637,323.5C 644.354,282.242 634.688,245.575 608,213.5C 573.273,176.807 531.773,150.641 483.5,135C 543.167,151.08 592.667,182.913 632,230.5C 695.129,311.475 713.462,401.809 687,501.5C 659.64,588.526 604.806,651.693 522.5,691C 481.698,708.746 439.031,717.579 394.5,717.5C 395.997,711.848 397.33,706.182 398.5,700.5C 502.947,698.039 584.114,653.706 642,567.5C 648.368,556.763 654.201,545.763 659.5,534.5 Z"/></g>
<g><path style="opacity:1" fill="#cecccd" d="M 671.5,337.5 C 670.5,337.5 669.5,337.5 668.5,337.5C 668.21,316.316 669.21,316.316 671.5,337.5 Z"/></g>
<g><path style="opacity:1" fill="#242223" d="M 293.5,348.5 C 312.137,353.817 330.137,360.817 347.5,369.5C 348.484,372.428 348.817,375.428 348.5,378.5C 346.063,378.756 343.729,379.423 341.5,380.5C 322.836,371.001 303.503,363.168 283.5,357C 287.025,354.302 290.358,351.469 293.5,348.5 Z"/></g>
<g><path style="opacity:1" fill="#a29fa0" d="M 681.5,357.5 C 680.833,362.167 680.167,366.833 679.5,371.5C 679.334,364.825 679.5,358.158 680,351.5C 680.813,353.436 681.313,355.436 681.5,357.5 Z"/></g>
<g><path style="opacity:1" fill="#252324" d="M 271.5,366.5 C 289.793,370.481 307.126,376.981 323.5,386C 318.923,388.633 314.257,390.633 309.5,392C 294.618,384.818 279.285,378.818 263.5,374C 266.062,371.267 268.729,368.767 271.5,366.5 Z"/></g>
<g><path style="opacity:1" fill="#939192" d="M 195.5,376.5 C 198.355,375.197 201.355,375.197 204.5,376.5C 204.376,377.107 204.043,377.44 203.5,377.5C 201.052,376.527 198.385,376.194 195.5,376.5 Z"/></g>
<g><path style="opacity:1" fill="#2a2829" d="M 253.5,382.5 C 269.982,385.993 285.649,391.66 300.5,399.5C 298.167,402.5 295.5,405.167 292.5,407.5C 278.163,400.554 263.33,394.887 248,390.5C 246.743,390.15 246.409,389.483 247,388.5C 249.063,386.266 251.229,384.266 253.5,382.5 Z"/></g>
<g><path style="opacity:1" fill="#fcfcfc" d="M 227.5,402.5 C 229.898,402.259 231.898,402.926 233.5,404.5C 233.577,405.75 234.244,406.583 235.5,407C 251.182,412.056 266.182,418.556 280.5,426.5C 280.685,428.196 281.519,429.529 283,430.5C 284.041,428.689 285.207,428.355 286.5,429.5C 273.324,462.1 276.824,492.766 297,521.5C 301.409,526.58 306.409,530.914 312,534.5C 312.667,533.833 312.667,533.167 312,532.5C 288.566,503.65 288.899,474.983 313,446.5C 320.947,439.116 329.781,433.116 339.5,428.5C 346.373,426.032 353.373,424.032 360.5,422.5C 360.19,425.713 360.523,428.713 361.5,431.5C 366.92,483.863 372.587,536.196 378.5,588.5C 321.528,601.88 273.362,586.88 234,543.5C 215.091,518.757 207.091,490.757 210,459.5C 211.049,438.957 216.882,419.957 227.5,402.5 Z"/></g>
<g><path style="opacity:1" fill="#323030" d="M 312.5,399.5 C 316.006,400.324 319.34,401.657 322.5,403.5C 322.232,405.099 322.566,406.432 323.5,407.5C 316.415,413.041 309.748,419.041 303.5,425.5C 300.074,421.494 298.741,416.827 299.5,411.5C 303.207,406.792 307.54,402.792 312.5,399.5 Z"/></g>
<g><path style="opacity:1" fill="#2a2828" d="M 280.5,426.5 C 266.182,418.556 251.182,412.056 235.5,407C 234.244,406.583 233.577,405.75 233.5,404.5C 235.107,402.282 236.94,400.282 239,398.5C 255.47,402.994 270.97,409.494 285.5,418C 283.94,420.963 282.273,423.796 280.5,426.5 Z"/></g>
<g><path style="opacity:1" fill="#242122" d="M 436.5,409.5 C 439.167,411.5 441.5,413.833 443.5,416.5C 443.5,417.5 443.5,418.5 443.5,419.5C 441.208,419.756 439.041,419.423 437,418.5C 436.502,415.518 436.335,412.518 436.5,409.5 Z"/></g>
<g><path style="opacity:1" fill="#464344" d="M 434.5,407.5 C 435.5,407.833 436.167,408.5 436.5,409.5C 436.335,412.518 436.502,415.518 437,418.5C 439.041,419.423 441.208,419.756 443.5,419.5C 443.5,418.5 443.5,417.5 443.5,416.5C 445.262,417.262 446.262,418.596 446.5,420.5C 435.85,422.843 431.85,418.51 434.5,407.5 Z"/></g>
<g><path style="opacity:1" fill="#f9f8f8" d="M 370.5,421.5 C 417.872,418.716 445.038,440.716 452,487.5C 454.317,534.899 433.817,567.899 390.5,586.5C 383.833,531.494 377.166,476.494 370.5,421.5 Z"/></g>
<g><path style="opacity:1" fill="#f6f6f6" d="M 371.5,410.5 C 357.011,412.217 343.677,416.883 331.5,424.5C 313.516,433.651 300.016,447.318 291,465.5C 291.242,450.941 295.409,437.607 303.5,425.5C 309.748,419.041 316.415,413.041 323.5,407.5C 351.317,390.053 380.317,387.886 410.5,401C 424.617,408.783 435.784,419.617 444,433.5C 453.414,450.377 452.414,451.377 441,436.5C 421.881,417.29 398.714,408.624 371.5,410.5 Z"/></g>
<g><path style="opacity:1" fill="#343333" d="M 371.5,410.5 C 370.791,411.404 369.791,411.737 368.5,411.5C 368.666,416.179 368.499,420.845 368,425.5C 366.509,427.004 364.676,427.837 362.5,428C 361.663,429.011 361.33,430.178 361.5,431.5C 360.523,428.713 360.19,425.713 360.5,422.5C 353.373,424.032 346.373,426.032 339.5,428.5C 337.151,426.659 334.485,425.326 331.5,424.5C 343.677,416.883 357.011,412.217 371.5,410.5 Z"/></g>
<g><path style="opacity:1" fill="#3c393a" d="M 532.5,420.5 C 534.517,422.217 534.85,424.217 533.5,426.5C 526.69,429.942 521.024,428.609 516.5,422.5C 521.791,421.616 527.124,420.949 532.5,420.5 Z"/></g>
<g><path style="opacity:1" fill="#242223" d="M 378.5,428.5 C 385.23,428.226 391.897,428.726 398.5,430C 407.547,435.524 416.88,440.524 426.5,445C 432.435,450.896 436.602,457.729 439,465.5C 417.915,457.21 398.082,446.71 379.5,434C 378.594,432.301 378.261,430.467 378.5,428.5 Z"/></g>
<g><path style="opacity:1" fill="#252323" d="M 228.5,414.5 C 243.71,419.269 258.377,425.435 272.5,433C 274.327,433.899 275.66,435.233 276.5,437C 276.057,440.079 275.057,442.912 273.5,445.5C 258.259,436.213 242.259,428.546 225.5,422.5C 225.94,419.62 226.94,416.954 228.5,414.5 Z"/></g>
<g><path style="opacity:1" fill="#282425" d="M 352.5,430.5 C 354.197,432.305 355.03,434.639 355,437.5C 355.821,440.554 355.655,443.554 354.5,446.5C 349.975,442.808 345.308,439.308 340.5,436C 344.644,434.241 348.644,432.408 352.5,430.5 Z"/></g>
<g><path style="opacity:1" fill="#262425" d="M 327.5,442.5 C 328.873,442.343 330.207,442.51 331.5,443C 340.306,448.973 348.972,455.139 357.5,461.5C 358.771,467.105 359.271,472.772 359,478.5C 346.113,468.613 332.946,459.113 319.5,450C 322.062,447.267 324.729,444.767 327.5,442.5 Z"/></g>
<g><path style="opacity:1" fill="#242223" d="M 381.5,450.5 C 401.254,464.048 422.254,475.548 444.5,485C 445.469,489.737 445.803,494.57 445.5,499.5C 424.07,491.119 403.737,480.619 384.5,468C 382.926,466.174 382.093,464.007 382,461.5C 381.501,457.848 381.335,454.182 381.5,450.5 Z"/></g>
<g><path style="opacity:1" fill="#252323" d="M 299.5,411.5 C 298.741,416.827 300.074,421.494 303.5,425.5C 295.409,437.607 291.242,450.941 291,465.5C 300.016,447.318 313.516,433.651 331.5,424.5C 334.485,425.326 337.151,426.659 339.5,428.5C 329.781,433.116 320.947,439.116 313,446.5C 288.899,474.983 288.566,503.65 312,532.5C 312.667,533.167 312.667,533.833 312,534.5C 306.409,530.914 301.409,526.58 297,521.5C 276.824,492.766 273.324,462.1 286.5,429.5C 289.854,422.793 294.187,416.793 299.5,411.5 Z"/></g>
<g><path style="opacity:1" fill="#252424" d="M 312.5,457.5 C 328.904,469.125 345.071,481.125 361,493.5C 362.248,499.811 362.915,506.144 363,512.5C 345.532,496.693 327.199,482.027 308,468.5C 308.361,464.434 309.861,460.768 312.5,457.5 Z"/></g>
<g><path style="opacity:1" fill="#252323" d="M 291.5,142.5 C 188.31,190.115 128.81,270.449 113,383.5C 112.333,387.167 112.333,390.833 113,394.5C 122.615,374.885 137.449,360.718 157.5,352C 174.755,344.734 192.755,340.567 211.5,339.5C 216.032,339.182 220.366,339.515 224.5,340.5C 223.055,343.118 221.389,345.618 219.5,348C 187.353,346.614 158.353,355.281 132.5,374C 123.656,381.664 116.989,390.83 112.5,401.5C 111.35,406.316 111.184,411.316 112,416.5C 112.791,415.255 113.291,413.922 113.5,412.5C 123.108,390.729 139.108,375.562 161.5,367C 178.228,360.244 195.561,357.41 213.5,358.5C 211.914,360.67 210.58,363.004 209.5,365.5C 187.313,365.417 166.313,370.25 146.5,380C 129.932,389.231 118.432,402.731 112,420.5C 111.333,422.167 111.333,423.833 112,425.5C 123.381,402.534 141.548,387.701 166.5,381C 175.969,378.2 185.636,376.7 195.5,376.5C 198.385,376.194 201.052,376.527 203.5,377.5C 203.131,379.441 202.464,381.275 201.5,383C 180.286,382.637 160.286,387.304 141.5,397C 128.502,404.331 119.002,414.831 113,428.5C 112.333,432.167 112.333,435.833 113,439.5C 122.718,411.712 142.218,395.879 171.5,392C 180.473,390.358 189.473,390.192 198.5,391.5C 197.82,393.889 196.986,396.222 196,398.5C 168.344,394.164 144.678,401.83 125,421.5C 120.304,427.556 116.637,434.223 114,441.5C 113.245,444.303 113.578,446.97 115,449.5C 127.341,419.818 149.674,405.151 182,405.5C 186.167,405.833 190.333,406.167 194.5,406.5C 193.652,408.409 193.318,410.409 193.5,412.5C 166.273,407.668 143.44,415.335 125,435.5C 119.76,442.144 116.594,449.644 115.5,458C 132.611,552.739 183.278,623.072 267.5,669C 262.654,672.257 257.988,675.757 253.5,679.5C 159.482,623.876 108.315,541.209 100,431.5C 97.9536,328.516 137.12,245.349 217.5,182C 240.153,165.209 264.819,152.043 291.5,142.5 Z"/></g>
<g><path style="opacity:1" fill="#bbb8b9" d="M 112.5,401.5 C 112.185,405.371 112.518,409.038 113.5,412.5C 113.291,413.922 112.791,415.255 112,416.5C 111.184,411.316 111.35,406.316 112.5,401.5 Z"/></g>
<g><path style="opacity:1" fill="#242223" d="M 384.5,481.5 C 402.82,494.335 422.153,505.668 442.5,515.5C 442.805,520.301 441.805,524.967 439.5,529.5C 421.846,520.677 404.846,510.844 388.5,500C 387.107,498.829 386.273,497.329 386,495.5C 385.719,490.785 385.219,486.118 384.5,481.5 Z"/></g>
<g><path style="opacity:1" fill="#242122" d="M 388.5,516.5 C 402.127,526.319 416.127,535.653 430.5,544.5C 431.583,545.365 431.749,546.365 431,547.5C 429.188,550.28 427.021,552.78 424.5,555C 423.5,555.667 422.5,555.667 421.5,555C 411.5,548.333 401.5,541.667 391.5,535C 390.217,528.91 389.217,522.744 388.5,516.5 Z"/></g>
<g><path style="opacity:1" fill="#878585" d="M 659.5,534.5 C 659.5,534.167 659.5,533.833 659.5,533.5C 659.709,532.078 660.209,530.745 661,529.5C 661.654,528.304 662.154,528.304 662.5,529.5C 661.725,531.396 660.725,533.063 659.5,534.5 Z"/></g>
<g><path style="opacity:1" fill="#faf9fa" d="M 273.5,687.5 C 287.719,687.221 294.219,694.221 293,708.5C 290.833,713.333 287.333,716.833 282.5,719C 277.172,720.832 271.839,722.666 266.5,724.5C 259.679,713.714 259.846,703.048 267,692.5C 269.326,690.934 271.492,689.268 273.5,687.5 Z"/></g>
<g><path style="opacity:1" fill="#252223" d="M 308.5,687.5 C 308.56,686.957 308.893,686.624 309.5,686.5C 331.184,694.171 353.517,698.504 376.5,699.5C 375.37,704.888 374.037,710.222 372.5,715.5C 352.466,714.161 332.8,710.661 313.5,705C 312.578,700.894 311.744,696.727 311,692.5C 310.626,690.509 309.793,688.842 308.5,687.5 Z"/></g>
</svg>
