<?xml version="1.0" encoding="UTF-8"?>
<!DOCTYPE svg PUBLIC "-//W3C//DTD SVG 1.1//EN" "http://www.w3.org/Graphics/SVG/1.1/DTD/svg11.dtd">
<svg xmlns="http://www.w3.org/2000/svg" version="1.1" width="600px" height="600px" style="shape-rendering:geometricPrecision; text-rendering:geometricPrecision; image-rendering:optimizeQuality; fill-rule:evenodd; clip-rule:evenodd" xmlns:xlink="http://www.w3.org/1999/xlink">
<g><path style="opacity:1" fill="#2d2f2e" d="M -0.5,-0.5 C 199.5,-0.5 399.5,-0.5 599.5,-0.5C 599.5,199.5 599.5,399.5 599.5,599.5C 399.5,599.5 199.5,599.5 -0.5,599.5C -0.5,399.5 -0.5,199.5 -0.5,-0.5 Z"/></g>
<g><path style="opacity:1" fill="#c8c8c2" d="M 312.5,194.5 C 312.5,212.167 312.5,229.833 312.5,247.5C 311.669,232.339 311.169,217.005 311,201.5C 310.798,203.256 310.298,204.922 309.5,206.5C 306.362,207.805 304.029,209.971 302.5,213C 300.376,214.122 298.543,215.622 297,217.5C 296.722,216.584 296.222,215.918 295.5,215.5C 295.5,213.5 295.5,211.5 295.5,209.5C 300.844,204.157 306.511,199.157 312.5,194.5 Z"/></g>
<g><path style="opacity:1" fill="#f3f3ec" d="M 312.5,194.5 C 306.511,199.157 300.844,204.157 295.5,209.5C 294.833,209.5 294.5,209.833 294.5,210.5C 269.602,230.995 249.435,255.328 234,283.5C 222.092,319.388 231.259,348.555 261.5,371C 271.541,377.625 282.541,381.125 294.5,381.5C 295.333,346.002 295.833,310.336 296,274.5C 296.249,275.624 296.749,276.624 297.5,277.5C 301.744,276.293 306.077,275.626 310.5,275.5C 311.193,307.979 311.86,342.979 312.5,380.5C 312.833,380.5 313.167,380.5 313.5,380.5C 348.181,371.314 367.181,348.814 370.5,313C 368.627,289.124 356.293,273.457 333.5,266C 326.379,264.361 319.379,264.195 312.5,265.5C 305.559,266.477 299.225,268.81 293.5,272.5C 277.753,284.223 271.253,299.889 274,319.5C 275.585,326.923 277.919,333.923 281,340.5C 277.201,343.297 273.701,346.464 270.5,350C 269.551,350.617 268.718,350.451 268,349.5C 253.784,326.413 252.784,302.746 265,278.5C 272.164,267.502 281.664,259.168 293.5,253.5C 295.48,241.211 296.147,228.544 295.5,215.5C 296.222,215.918 296.722,216.584 297,217.5C 298.543,215.622 300.376,214.122 302.5,213C 304.029,209.971 306.362,207.805 309.5,206.5C 310.298,204.922 310.798,203.256 311,201.5C 311.169,217.005 311.669,232.339 312.5,247.5C 349.732,246.242 374.232,263.242 386,298.5C 390.603,341.803 373.436,372.97 334.5,392C 328.283,394.304 321.949,396.137 315.5,397.5C 313.901,397.232 312.568,397.566 311.5,398.5C 305.833,398.5 300.167,398.5 294.5,398.5C 264.026,396.18 240.526,382.18 224,356.5C 204.742,319.551 207.742,284.551 233,251.5C 250.889,227.941 271.223,206.608 294,187.5C 294.333,167.833 294.667,148.167 295,128.5C 303.49,106.559 318.323,100.725 339.5,111C 349.807,119.927 353.307,131.093 350,144.5C 348.145,154.207 344.145,162.874 338,170.5C 329.932,179.071 321.432,187.071 312.5,194.5 Z"/></g>
<g><path style="opacity:1" fill="#a9aba7" d="M 295.5,209.5 C 295.5,211.5 295.5,213.5 295.5,215.5C 296.147,228.544 295.48,241.211 293.5,253.5C 294.482,239.245 294.816,224.912 294.5,210.5C 294.5,209.833 294.833,209.5 295.5,209.5 Z"/></g>
<g><path style="opacity:1" fill="#2d2f2e" d="M 294.5,210.5 C 294.816,224.912 294.482,239.245 293.5,253.5C 281.664,259.168 272.164,267.502 265,278.5C 252.784,302.746 253.784,326.413 268,349.5C 268.718,350.451 269.551,350.617 270.5,350C 273.701,346.464 277.201,343.297 281,340.5C 277.919,333.923 275.585,326.923 274,319.5C 271.253,299.889 277.753,284.223 293.5,272.5C 294.498,308.663 294.832,344.996 294.5,381.5C 282.541,381.125 271.541,377.625 261.5,371C 231.259,348.555 222.092,319.388 234,283.5C 249.435,255.328 269.602,230.995 294.5,210.5 Z"/></g>
<g><path style="opacity:1" fill="#313332" d="M 318.5,123.5 C 324.898,122.053 329.731,124.053 333,129.5C 334.456,141.132 331.456,151.465 324,160.5C 320.318,164.349 316.485,168.016 312.5,171.5C 311.334,158.179 311.167,144.846 312,131.5C 313.305,128.039 315.471,125.372 318.5,123.5 Z"/></g>
<g><path style="opacity:1" fill="#2d2f2f" d="M 312.5,265.5 C 319.379,264.195 326.379,264.361 333.5,266C 356.293,273.457 368.627,289.124 370.5,313C 367.181,348.814 348.181,371.314 313.5,380.5C 312.843,342.113 313.51,303.946 315.5,266C 314.552,265.517 313.552,265.351 312.5,265.5 Z"/></g>
<g><path style="opacity:1" fill="#b4b4af" d="M 312.5,265.5 C 312.5,303.833 312.5,342.167 312.5,380.5C 311.86,342.979 311.193,307.979 310.5,275.5C 306.077,275.626 301.744,276.293 297.5,277.5C 296.749,276.624 296.249,275.624 296,274.5C 295.833,310.336 295.333,346.002 294.5,381.5C 294.832,344.996 294.498,308.663 293.5,272.5C 299.225,268.81 305.559,266.477 312.5,265.5 Z"/></g>
<g><path style="opacity:1" fill="#1d1e1d" d="M 312.5,265.5 C 313.552,265.351 314.552,265.517 315.5,266C 313.51,303.946 312.843,342.113 313.5,380.5C 313.167,380.5 312.833,380.5 312.5,380.5C 312.5,342.167 312.5,303.833 312.5,265.5 Z"/></g>
<g><path style="opacity:1" fill="#b8b9b4" d="M 294.5,398.5 C 300.167,398.5 305.833,398.5 311.5,398.5C 311.5,401.833 311.5,405.167 311.5,408.5C 310.596,409.209 310.263,410.209 310.5,411.5C 305.833,411.5 301.167,411.5 296.5,411.5C 295.793,426.971 295.126,444.304 294.5,463.5C 294.5,441.833 294.5,420.167 294.5,398.5 Z"/></g>
<g><path style="opacity:1" fill="#81827f" d="M 315.5,397.5 C 314.791,398.404 313.791,398.737 312.5,398.5C 312.831,421.006 312.497,443.34 311.5,465.5C 311.5,446.5 311.5,427.5 311.5,408.5C 311.5,405.167 311.5,401.833 311.5,398.5C 312.568,397.566 313.901,397.232 315.5,397.5 Z"/></g>
<g><path style="opacity:1" fill="#f4f4ec" d="M 311.5,408.5 C 311.5,427.5 311.5,446.5 311.5,465.5C 309.769,480.068 301.769,489.235 287.5,493C 265.66,494.324 253.326,484.157 250.5,462.5C 250.434,451.299 255.101,442.632 264.5,436.5C 268.606,440.529 272.606,444.695 276.5,449C 267.517,454.127 265.35,461.294 270,470.5C 275.296,475.717 281.463,476.884 288.5,474C 292.45,471.564 294.45,468.064 294.5,463.5C 295.126,444.304 295.793,426.971 296.5,411.5C 301.167,411.5 305.833,411.5 310.5,411.5C 310.263,410.209 310.596,409.209 311.5,408.5 Z"/></g>
</svg>
